<svg width="529.681" height="194.667" xmlns="http://www.w3.org/2000/svg">

 <g>
  <title>background</title>
  <rect fill="none" id="canvas_background" height="196.667" width="531.681" y="-1" x="-1"/>
 </g>
 <g>
  <title>Layer 1</title>
  <path id="svg_1" d="m128.981,114.009l0,-86.008l78.797,0c6.108,0 11.198,0.531 15.272,1.59c4.07,1.059 7.33,2.646 9.771,4.764c2.445,2.119 4.174,4.766 5.193,7.941c1.018,3.177 1.527,6.883 1.527,11.117l0,36.041c0,4.071 -0.51,7.635 -1.527,10.688c-1.02,3.055 -2.748,5.602 -5.193,7.637c-2.441,2.035 -5.701,3.584 -9.771,4.641c-4.074,1.061 -9.164,1.59 -15.272,1.59l-78.797,0l0,-0.001zm94.314,-60.596c0,-2.442 -0.244,-4.479 -0.733,-6.107c-0.49,-1.629 -1.325,-2.934 -2.505,-3.911c-1.182,-0.976 -2.77,-1.668 -4.764,-2.077c-1.998,-0.404 -4.502,-0.611 -7.515,-0.611l-62.55,0l0,60.597l62.55,0c3.013,0 5.517,-0.202 7.515,-0.611c1.994,-0.405 3.582,-1.057 4.764,-1.954c1.18,-0.896 2.015,-2.117 2.505,-3.664c0.489,-1.548 0.733,-3.461 0.733,-5.742l0,-35.92z" fill="none"/>
  <path id="svg_2" d="m128.981,114.009l0,-86.008l78.797,0c6.108,0 11.198,0.531 15.272,1.59c4.07,1.059 7.33,2.646 9.771,4.764c2.445,2.119 4.174,4.766 5.193,7.941c1.018,3.177 1.527,6.883 1.527,11.117l0,36.041c0,4.071 -0.51,7.635 -1.527,10.688c-1.02,3.055 -2.748,5.602 -5.193,7.637c-2.441,2.035 -5.701,3.584 -9.771,4.641c-4.074,1.061 -9.164,1.59 -15.272,1.59l-78.797,0l0,-0.001zm94.314,-60.596c0,-2.442 -0.244,-4.479 -0.733,-6.107c-0.49,-1.629 -1.325,-2.934 -2.505,-3.911c-1.182,-0.976 -2.77,-1.668 -4.764,-2.077c-1.998,-0.404 -4.502,-0.611 -7.515,-0.611l-62.55,0l0,60.597l62.55,0c3.013,0 5.517,-0.202 7.515,-0.611c1.994,-0.405 3.582,-1.057 4.764,-1.954c1.18,-0.896 2.015,-2.117 2.505,-3.664c0.489,-1.548 0.733,-3.461 0.733,-5.742l0,-35.92z" stroke-miterlimit="10" stroke-width="5" stroke="#FFFFFF" fill="none"/>
  <polygon id="svg_3" points="360.734,114.009 268.984,47.06 268.984,114.009 254.814,114.009 254.814,28.001 268.863,28.001   354.504,91.896 354.504,28.001 368.674,28.001 368.674,114.009 " fill="none"/>
  <polygon id="svg_4" points="360.734,114.009 268.984,47.06   268.984,114.009 254.814,114.009 254.814,28.001 268.863,28.001 354.504,91.896 354.504,28.001 368.674,28.001 368.674,114.009 " stroke-miterlimit="10" stroke-width="5" stroke="#FFFFFF" fill="none"/>
  <polygon id="svg_5" points="491.123,114.009 446.777,44.738 401.697,114.009 383.615,114.009 440.791,28.001 452.641,28.001   509.449,114.009 " fill="none"/>
  <polygon id="svg_6" points="491.123,114.009 446.777,44.738   401.697,114.009 383.615,114.009 440.791,28.001 452.641,28.001 509.449,114.009 " stroke-miterlimit="10" stroke-width="5" stroke="#FFFFFF" fill="none"/>
  <g id="svg_12">
   <path id="svg_13" d="m69.146,121.894c-0.014,-1.982 1.451,-3.467 3.431,-3.479c1.924,-0.01 3.462,1.543 3.448,3.486c-0.012,1.9 -1.484,3.383 -3.396,3.41c-1.968,0.032 -3.467,-1.439 -3.483,-3.417" fill="#FFFFFF" clip-rule="evenodd" fill-rule="evenodd"/>
   <path id="svg_14" d="m25.168,31.655c1.875,0.021 3.324,1.467 3.322,3.313c-0.004,1.897 -1.508,3.39 -3.396,3.367c-1.906,-0.022 -3.411,-1.524 -3.393,-3.386c0.018,-1.874 1.537,-3.316 3.467,-3.294" fill="#FFFFFF" clip-rule="evenodd" fill-rule="evenodd"/>
   <path id="svg_15" d="m82.174,115.933c-1.813,-0.02 -3.162,-1.406 -3.123,-3.207c0.039,-1.713 1.443,-3.068 3.179,-3.065c1.78,0.002 3.212,1.431 3.184,3.177c-0.029,1.808 -1.398,3.116 -3.24,3.095" fill="#FFFFFF" clip-rule="evenodd" fill-rule="evenodd"/>
   <path id="svg_16" d="m61.426,134.14c-1.688,-0.016 -3.013,-1.363 -3.018,-3.068c-0.005,-1.773 1.335,-3.111 3.096,-3.088c1.784,0.021 3.043,1.35 2.998,3.166c-0.041,1.722 -1.363,3.007 -3.076,2.99" fill="#FFFFFF" clip-rule="evenodd" fill-rule="evenodd"/>
   <path id="svg_17" d="m92.117,103.134c0.021,1.604 -1.164,2.83 -2.771,2.873c-1.562,0.039 -2.856,-1.187 -2.901,-2.756c-0.045,-1.609 1.238,-2.933 2.842,-2.93c1.599,0 2.811,1.208 2.83,2.813" fill="#FFFFFF" clip-rule="evenodd" fill-rule="evenodd"/>
   <path id="svg_18" d="m36.383,43.124c-0.013,1.57 -1.184,2.768 -2.726,2.777c-1.549,0.014 -2.838,-1.281 -2.821,-2.832c0.018,-1.548 1.342,-2.83 2.875,-2.787c1.523,0.045 2.684,1.279 2.672,2.842" fill="#FFFFFF" clip-rule="evenodd" fill-rule="evenodd"/>
   <path id="svg_19" d="m54.223,139.284c-0.008,1.562 -1.229,2.744 -2.791,2.709c-1.531,-0.039 -2.635,-1.188 -2.625,-2.73c0.012,-1.574 1.228,-2.775 2.765,-2.732c1.477,0.04 2.658,1.269 2.651,2.753" fill="#FFFFFF" clip-rule="evenodd" fill-rule="evenodd"/>
   <path id="svg_20" d="m90.613,95.112c-1.449,-0.014 -2.506,-1.103 -2.49,-2.563c0.015,-1.44 1.127,-2.53 2.559,-2.507c1.405,0.023 2.527,1.173 2.516,2.578c-0.01,1.412 -1.145,2.506 -2.585,2.492" fill="#FFFFFF" clip-rule="evenodd" fill-rule="evenodd"/>
   <path id="svg_21" d="m45.301,146.96c0.017,1.336 -1.021,2.418 -2.345,2.445c-1.386,0.031 -2.501,-1.053 -2.497,-2.426c0.002,-1.309 1.102,-2.402 2.422,-2.412c1.315,-0.005 2.403,1.069 2.42,2.393" fill="#FFFFFF" clip-rule="evenodd" fill-rule="evenodd"/>
   <path id="svg_22" d="m18.314,20.368c1.347,-0.024 2.429,1.024 2.434,2.358c0.004,1.329 -1.084,2.438 -2.387,2.433c-1.271,-0.006 -2.338,-1.053 -2.368,-2.324c-0.032,-1.363 0.986,-2.443 2.321,-2.467" fill="#FFFFFF" clip-rule="evenodd" fill-rule="evenodd"/>
   <path id="svg_23" d="m86.084,83.083c-0.004,-1.285 0.937,-2.254 2.213,-2.278c1.3,-0.027 2.275,0.897 2.31,2.181c0.037,1.357 -0.92,2.342 -2.269,2.333c-1.308,-0.007 -2.248,-0.943 -2.254,-2.236" fill="#FFFFFF" clip-rule="evenodd" fill-rule="evenodd"/>
   <path id="svg_24" d="m35.803,156.671c-1.195,0 -2.125,-0.914 -2.14,-2.1c-0.014,-1.23 0.97,-2.215 2.185,-2.184c1.189,0.031 2.074,0.959 2.074,2.172c-0.002,1.21 -0.908,2.114 -2.119,2.112" fill="#FFFFFF" clip-rule="evenodd" fill-rule="evenodd"/>
   <path id="svg_25" d="m41.4,45.974c1.183,0 2.114,0.918 2.129,2.103c0.014,1.201 -0.883,2.118 -2.09,2.14c-1.236,0.023 -2.197,-0.929 -2.186,-2.16c0.012,-1.167 0.956,-2.083 2.147,-2.083" fill="#FFFFFF" clip-rule="evenodd" fill-rule="evenodd"/>
   <path id="svg_26" d="m84.506,77.149c-1.097,0.008 -2.055,-0.955 -2.061,-2.063c-0.005,-1.142 0.891,-2.028 2.055,-2.035c1.146,-0.004 2.055,0.896 2.059,2.032c0.002,1.1 -0.955,2.063 -2.053,2.066" fill="#FFFFFF" clip-rule="evenodd" fill-rule="evenodd"/>
   <path id="svg_27" d="m32.527,162.216c-0.02,1.062 -0.857,1.887 -1.914,1.885c-1.07,0 -1.867,-0.816 -1.869,-1.91c-0.002,-1.102 0.794,-1.881 1.9,-1.867c1.103,0.013 1.904,0.818 1.883,1.892" fill="#FFFFFF" clip-rule="evenodd" fill-rule="evenodd"/>
   <path id="svg_28" d="m81.676,68.55c-0.021,1.064 -0.793,1.824 -1.834,1.803c-1.031,-0.021 -1.789,-0.825 -1.769,-1.877c0.019,-1.016 0.854,-1.848 1.845,-1.833c0.985,0.014 1.776,0.874 1.758,1.907" fill="#FFFFFF" clip-rule="evenodd" fill-rule="evenodd"/>
   <path id="svg_29" d="m18.254,12.671c0.027,0.935 -0.629,1.631 -1.568,1.672c-0.999,0.041 -1.732,-0.646 -1.733,-1.625c-0.003,-0.91 0.694,-1.67 1.573,-1.715c0.917,-0.047 1.703,0.709 1.728,1.668" fill="#FFFFFF" clip-rule="evenodd" fill-rule="evenodd"/>
   <path id="svg_30" d="m28.166,171.696c-0.949,0.018 -1.674,-0.715 -1.666,-1.68c0.008,-0.936 0.668,-1.623 1.58,-1.652c0.938,-0.025 1.729,0.703 1.76,1.625c0.029,0.903 -0.741,1.692 -1.674,1.707" fill="#FFFFFF" clip-rule="evenodd" fill-rule="evenodd"/>
   <path id="svg_31" d="m77.121,63.96c-0.023,0.904 -0.776,1.613 -1.676,1.58c-0.918,-0.033 -1.595,-0.779 -1.543,-1.701c0.047,-0.881 0.732,-1.525 1.608,-1.519c0.925,0.013 1.636,0.736 1.611,1.64" fill="#FFFFFF" clip-rule="evenodd" fill-rule="evenodd"/>
   <path id="svg_32" d="m47.99,49.544c0.92,-0.008 1.636,0.701 1.631,1.613c-0.006,0.907 -0.732,1.6 -1.66,1.581c-0.891,-0.016 -1.54,-0.663 -1.564,-1.552c-0.024,-0.929 0.66,-1.636 1.593,-1.642" fill="#FFFFFF" clip-rule="evenodd" fill-rule="evenodd"/>
   <path id="svg_33" d="m44.189,73.024c-1.946,0.012 -3.502,-1.498 -3.512,-3.414c-0.009,-1.896 1.562,-3.465 3.479,-3.469c1.943,-0.002 3.408,1.5 3.398,3.488c-0.01,1.94 -1.439,3.382 -3.365,3.395" fill="#FFFFFF" clip-rule="evenodd" fill-rule="evenodd"/>
   <path id="svg_34" d="m93.275,151.866c1.823,-0.021 3.281,1.381 3.312,3.184c0.031,1.826 -1.462,3.375 -3.266,3.389c-1.771,0.014 -3.203,-1.449 -3.221,-3.283c-0.014,-1.866 1.339,-3.268 3.175,-3.29" fill="#FFFFFF" clip-rule="evenodd" fill-rule="evenodd"/>
   <path id="svg_35" d="m34.055,82.899c-1.765,-0.006 -3.193,-1.422 -3.195,-3.172c-0.002,-1.742 1.451,-3.158 3.229,-3.144c1.801,0.011 3.18,1.397 3.168,3.183c-0.015,1.797 -1.386,3.139 -3.202,3.133" fill="#FFFFFF" clip-rule="evenodd" fill-rule="evenodd"/>
   <path id="svg_36" d="m54.193,58.28c1.729,-0.002 3.117,1.396 3.094,3.112c-0.024,1.743 -1.401,3.084 -3.147,3.063c-1.702,-0.021 -3.012,-1.348 -3.022,-3.059c-0.011,-1.76 1.325,-3.112 3.075,-3.116" fill="#FFFFFF" clip-rule="evenodd" fill-rule="evenodd"/>
   <path id="svg_37" d="m87.885,146.466c0,1.584 -1.231,2.824 -2.82,2.838c-1.559,0.016 -2.844,-1.25 -2.863,-2.809c-0.018,-1.633 1.253,-2.902 2.891,-2.883c1.573,0.022 2.794,1.266 2.792,2.854" fill="#FFFFFF" clip-rule="evenodd" fill-rule="evenodd"/>
   <path id="svg_38" d="m27.348,93.978c-1.6,0 -2.82,-1.217 -2.824,-2.815c-0.004,-1.622 1.201,-2.839 2.807,-2.834c1.662,0.007 2.811,1.161 2.809,2.817c-0.001,1.662 -1.157,2.83 -2.792,2.832" fill="#FFFFFF" clip-rule="evenodd" fill-rule="evenodd"/>
   <path id="svg_39" d="m66.256,54.104c-0.008,1.584 -1.267,2.808 -2.851,2.771c-1.544,-0.037 -2.715,-1.253 -2.7,-2.803c0.016,-1.597 1.143,-2.724 2.737,-2.739c1.644,-0.016 2.822,1.146 2.814,2.771" fill="#FFFFFF" clip-rule="evenodd" fill-rule="evenodd"/>
   <path id="svg_40" d="m71.709,49.792c-1.373,-0.01 -2.465,-1.096 -2.479,-2.473c-0.017,-1.414 1.135,-2.582 2.528,-2.566c1.356,0.016 2.473,1.14 2.484,2.5c0.01,1.427 -1.109,2.549 -2.533,2.539" fill="#FFFFFF" clip-rule="evenodd" fill-rule="evenodd"/>
   <path id="svg_41" d="m28.984,102.892c0.026,1.443 -1.041,2.547 -2.477,2.56c-1.443,0.013 -2.555,-1.065 -2.566,-2.489c-0.008,-1.375 1.063,-2.476 2.438,-2.509c1.454,-0.037 2.582,1.018 2.605,2.438" fill="#FFFFFF" clip-rule="evenodd" fill-rule="evenodd"/>
   <path id="svg_42" d="m102.627,166.849c-0.021,1.23 -1.037,2.205 -2.299,2.197c-1.267,-0.008 -2.25,-0.982 -2.257,-2.242c-0.007,-1.301 1.034,-2.299 2.358,-2.258c1.28,0.037 2.217,1.019 2.198,2.303" fill="#FFFFFF" clip-rule="evenodd" fill-rule="evenodd"/>
   <path id="svg_43" d="m78.775,42.88c-1.236,-0.008 -2.238,-1.026 -2.232,-2.273c0.004,-1.279 0.979,-2.232 2.27,-2.227c1.301,0.006 2.24,0.961 2.23,2.263c-0.01,1.27 -0.997,2.245 -2.268,2.237" fill="#FFFFFF" clip-rule="evenodd" fill-rule="evenodd"/>
   <path id="svg_44" d="m31.701,113.29c-0.027,1.291 -1.01,2.213 -2.308,2.164c-1.245,-0.049 -2.151,-0.982 -2.149,-2.219c0.004,-1.256 1.002,-2.238 2.268,-2.234s2.218,0.998 2.189,2.289" fill="#FFFFFF" clip-rule="evenodd" fill-rule="evenodd"/>
   <path id="svg_45" d="m80.014,140.595c-0.022,1.182 -1.049,2.123 -2.274,2.086c-1.194,-0.035 -2.086,-0.953 -2.082,-2.143c0.003,-1.227 0.957,-2.152 2.198,-2.135c1.229,0.02 2.183,0.987 2.158,2.192" fill="#FFFFFF" clip-rule="evenodd" fill-rule="evenodd"/>
   <path id="svg_46" d="m84.467,35.888c-1.123,0.015 -2.055,-0.912 -2.06,-2.047c-0.002,-1.16 0.888,-2.041 2.052,-2.031c1.073,0.01 1.994,0.902 2.031,1.97c0.038,1.053 -0.962,2.095 -2.023,2.108" fill="#FFFFFF" clip-rule="evenodd" fill-rule="evenodd"/>
   <path id="svg_47" d="m34.773,119.308c1.108,0.004 1.99,0.859 2.01,1.947c0.019,1.135 -0.903,2.031 -2.061,2c-1.119,-0.027 -1.959,-0.891 -1.943,-1.994c0.014,-1.092 0.899,-1.955 1.994,-1.953" fill="#FFFFFF" clip-rule="evenodd" fill-rule="evenodd"/>
   <path id="svg_48" d="m90.039,26.698c0.033,0.976 -0.805,1.848 -1.815,1.881c-1.037,0.037 -1.841,-0.736 -1.856,-1.785c-0.015,-1.006 0.703,-1.768 1.709,-1.811c1.022,-0.043 1.927,0.75 1.962,1.715" fill="#FFFFFF" clip-rule="evenodd" fill-rule="evenodd"/>
   <path id="svg_49" d="m41.406,125.097c0.931,0.021 1.756,0.879 1.742,1.811c-0.012,0.957 -0.822,1.752 -1.787,1.752c-1.031,0 -1.824,-0.822 -1.785,-1.854c0.037,-0.948 0.875,-1.733 1.83,-1.709" fill="#FFFFFF" clip-rule="evenodd" fill-rule="evenodd"/>
   <path id="svg_50" d="m73.832,136.63c0.026,0.914 -0.646,1.646 -1.549,1.68c-0.875,0.033 -1.638,-0.678 -1.678,-1.566c-0.037,-0.889 0.661,-1.633 1.564,-1.66c0.931,-0.03 1.638,0.628 1.663,1.546" fill="#FFFFFF" clip-rule="evenodd" fill-rule="evenodd"/>
   <path id="svg_51" d="m89.605,18.073c0.916,0.014 1.621,0.746 1.592,1.65c-0.032,0.912 -0.768,1.579 -1.694,1.541c-0.894,-0.037 -1.535,-0.699 -1.528,-1.58c0.005,-0.917 0.722,-1.625 1.63,-1.611" fill="#FFFFFF" clip-rule="evenodd" fill-rule="evenodd"/>
  </g>
  <text xml:space="preserve" text-anchor="start" font-family="null" font-size="50" id="svg_52" y="172.786621" x="131.340515" stroke-width="null" fill="#FFFFFF">G    R    O    U    P</text>
 </g>
</svg>