<svg width="200" height="70" xmlns="http://www.w3.org/2000/svg" >

 <g>
  <title>background</title>
  <rect fill="none" id="canvas_background" height="72" width="202" y="-1" x="-1"/>
 </g>
 <g>
  <title>Layer 1</title>
  <g stroke="null" id="svg_54">
   <path stroke="null" id="svg_1" d="m46.65683,40.501903l0,-32.832579l30.079861,0c2.33166,0 4.27471,0.202703 5.829913,0.606964c1.553676,0.404261 2.798144,1.010081 3.729968,1.818603c0.933351,0.808904 1.593377,1.819366 1.982369,3.031387c0.38861,1.212784 0.582915,2.627507 0.582915,4.243789l0,13.758243c0,1.554058 -0.194687,2.914575 -0.582915,4.080023c-0.389373,1.166212 -1.049018,2.1385 -1.982369,2.915338c-0.931824,0.776838 -2.176292,1.368151 -3.729968,1.771649c-1.555203,0.405025 -3.498253,0.606964 -5.829913,0.606964l-30.079861,0l0,-0.000382zm36.0033,-23.131836c0,-0.932206 -0.093144,-1.709807 -0.279814,-2.331278c-0.187052,-0.621852 -0.505804,-1.120021 -0.956255,-1.49298c-0.451215,-0.372577 -1.057416,-0.63674 -1.818603,-0.792871c-0.762714,-0.154222 -1.718587,-0.233242 -2.868766,-0.233242l-23.877753,0l0,23.132218l23.877753,0c1.150179,0 2.106052,-0.077111 2.868766,-0.233242c0.761187,-0.154604 1.367388,-0.403498 1.818603,-0.745917c0.450452,-0.342038 0.769203,-0.808141 0.956255,-1.39869c0.18667,-0.590931 0.279814,-1.321198 0.279814,-2.191943l0,-13.712053z" fill="none"/>
   <path stroke="#FFFFFF" id="svg_2" d="m46.65683,40.501903l0,-32.832579l30.079861,0c2.33166,0 4.27471,0.202703 5.829913,0.606964c1.553676,0.404261 2.798144,1.010081 3.729968,1.818603c0.933351,0.808904 1.593377,1.819366 1.982369,3.031387c0.38861,1.212784 0.582915,2.627507 0.582915,4.243789l0,13.758243c0,1.554058 -0.194687,2.914575 -0.582915,4.080023c-0.389373,1.166212 -1.049018,2.1385 -1.982369,2.915338c-0.931824,0.776838 -2.176292,1.368151 -3.729968,1.771649c-1.555203,0.405025 -3.498253,0.606964 -5.829913,0.606964l-30.079861,0l0,-0.000382zm36.0033,-23.131836c0,-0.932206 -0.093144,-1.709807 -0.279814,-2.331278c-0.187052,-0.621852 -0.505804,-1.120021 -0.956255,-1.49298c-0.451215,-0.372577 -1.057416,-0.63674 -1.818603,-0.792871c-0.762714,-0.154222 -1.718587,-0.233242 -2.868766,-0.233242l-23.877753,0l0,23.132218l23.877753,0c1.150179,0 2.106052,-0.077111 2.868766,-0.233242c0.761187,-0.154604 1.367388,-0.403498 1.818603,-0.745917c0.450452,-0.342038 0.769203,-0.808141 0.956255,-1.39869c0.18667,-0.590931 0.279814,-1.321198 0.279814,-2.191943l0,-13.712053z" stroke-miterlimit="10" stroke-width="5" fill="none"/>
   <polygon stroke="null" id="svg_3" points="135.1259202361107,40.50189208984375 100.10138410329819,14.944879531860352 100.10138410329819,40.50189208984375 94.69214338064194,40.50189208984375 94.69214338064194,7.669321060180664 100.05518049001694,7.669321060180664 132.74768537282944,32.060508728027344 132.74768537282944,7.669321060180664 138.1569260954857,7.669321060180664 138.1569260954857,40.50189208984375 " fill="none"/>
   <polygon stroke="#FFFFFF" id="svg_4" points="135.1259202361107,40.50189208984375 100.10138410329819,14.944879531860352 100.10138410329819,40.50189208984375 94.69214338064194,40.50189208984375 94.69214338064194,7.669321060180664 100.05518049001694,7.669321060180664 132.74768537282944,32.060508728027344 132.74768537282944,7.669321060180664 138.1569260954857,7.669321060180664 138.1569260954857,40.50189208984375 " stroke-miterlimit="10" stroke-width="5" fill="none"/>
   <polygon stroke="null" id="svg_5" points="184.90042585134506,40.50189208984375 167.97183698415756,14.058481216430664 150.76306623220444,40.50189208984375 143.86047834157944,40.50189208984375 165.6867417693138,7.669321060180664 170.21036237478256,7.669321060180664 191.8961839079857,40.50189208984375 " fill="none"/>
   <polygon stroke="#FFFFFF" id="svg_6" points="184.90042585134506,40.50189208984375 167.97183698415756,14.058481216430664 150.76306623220444,40.50189208984375 143.86047834157944,40.50189208984375 165.6867417693138,7.669321060180664 170.21036237478256,7.669321060180664 191.8961839079857,40.50189208984375 " stroke-miterlimit="10" stroke-width="5" fill="none"/>
   <g stroke="null" id="svg_12">
    <path stroke="null" id="svg_13" d="m26.164658,46.301542c-0.005344,-0.756606 0.553903,-1.323488 1.309745,-1.328069c0.734465,-0.003817 1.321579,0.589023 1.316235,1.330741c-0.004581,0.725303 -0.5665,1.291422 -1.296384,1.301729c-0.751262,0.012216 -1.323488,-0.549322 -1.329596,-1.304401" fill="#FFFFFF" clip-rule="evenodd" fill-rule="evenodd"/>
    <path stroke="null" id="svg_14" d="m9.376555,11.853826c0.71576,0.008017 1.268899,0.560011 1.268136,1.2647c-0.001527,0.724158 -0.575662,1.294094 -1.296384,1.285314c-0.727594,-0.008398 -1.302111,-0.58177 -1.295239,-1.292567c0.006871,-0.715378 0.586732,-1.265845 1.323488,-1.257447" fill="#FFFFFF" clip-rule="evenodd" fill-rule="evenodd"/>
    <path stroke="null" id="svg_15" d="m31.13795,44.025997c-0.692092,-0.007635 -1.207058,-0.536725 -1.19217,-1.224236c0.014888,-0.653918 0.550849,-1.171174 1.213547,-1.170029c0.679495,0.000763 1.226145,0.546268 1.215456,1.212784c-0.01107,0.690184 -0.533671,1.189498 -1.236833,1.181481" fill="#FFFFFF" clip-rule="evenodd" fill-rule="evenodd"/>
    <path stroke="null" id="svg_16" d="m23.217636,50.976313c-0.644375,-0.006108 -1.150179,-0.52031 -1.152087,-1.171174c-0.001909,-0.676823 0.509621,-1.187589 1.181863,-1.178809c0.681022,0.008017 1.161631,0.515347 1.144453,1.208585c-0.015651,0.657354 -0.52031,1.147888 -1.174228,1.141399" fill="#FFFFFF" clip-rule="evenodd" fill-rule="evenodd"/>
    <path stroke="null" id="svg_17" d="m34.933577,39.140124c0.008017,0.612309 -0.444344,1.08032 -1.057798,1.096735c-0.596276,0.014888 -1.090246,-0.453124 -1.107424,-1.052072c-0.017178,-0.614218 0.472592,-1.119639 1.084901,-1.118494c0.6104,0 1.073067,0.46114 1.08032,1.073831" fill="#FFFFFF" clip-rule="evenodd" fill-rule="evenodd"/>
    <path stroke="null" id="svg_18" d="m13.657755,16.231987c-0.004963,0.59933 -0.451979,1.056653 -1.04062,1.060088c-0.591313,0.005344 -1.083374,-0.489007 -1.076885,-1.081084c0.006871,-0.590931 0.512293,-1.08032 1.097499,-1.063906c0.581388,0.017178 1.024587,0.488244 1.020006,1.084901" fill="#FFFFFF" clip-rule="evenodd" fill-rule="evenodd"/>
    <path stroke="null" id="svg_19" d="m20.467972,52.939977c-0.003054,0.596276 -0.469157,1.047491 -1.065433,1.03413c-0.584442,-0.014888 -1.005881,-0.453506 -1.002064,-1.042147c0.004581,-0.600857 0.468775,-1.059325 1.055507,-1.04291c0.563828,0.01527 1.014661,0.484426 1.011989,1.050927" fill="#FFFFFF" clip-rule="evenodd" fill-rule="evenodd"/>
    <path stroke="null" id="svg_20" d="m34.359442,36.077817c-0.553139,-0.005344 -0.956637,-0.421058 -0.950529,-0.978396c0.005726,-0.549704 0.430219,-0.965799 0.976869,-0.957019c0.536343,0.00878 0.964654,0.447779 0.960454,0.984122c-0.003817,0.539015 -0.437091,0.956637 -0.986794,0.951293" fill="#FFFFFF" clip-rule="evenodd" fill-rule="evenodd"/>
    <path stroke="null" id="svg_21" d="m17.0621,55.870203c0.00649,0.510003 -0.389755,0.923044 -0.895177,0.933351c-0.52909,0.011834 -0.954728,-0.401971 -0.953201,-0.926098c0.000763,-0.499696 0.420676,-0.916936 0.924571,-0.920754c0.501986,-0.001909 0.917318,0.408079 0.923808,0.913501" fill="#FFFFFF" clip-rule="evenodd" fill-rule="evenodd"/>
    <path stroke="null" id="svg_22" d="m6.760119,7.545142c0.514202,-0.009162 0.927243,0.3909 0.929152,0.90014c0.001527,0.507331 -0.413805,0.930679 -0.91121,0.92877c-0.48519,-0.00229 -0.892505,-0.401971 -0.903957,-0.887161c-0.012216,-0.52031 0.376394,-0.932588 0.886015,-0.941749" fill="#FFFFFF" clip-rule="evenodd" fill-rule="evenodd"/>
    <path stroke="null" id="svg_23" d="m32.630548,31.485882c-0.001527,-0.490534 0.357689,-0.860439 0.844788,-0.869601c0.49626,-0.010307 0.868455,0.34242 0.881816,0.832572c0.014124,0.518019 -0.3512,0.894032 -0.866165,0.890596c-0.499314,-0.002672 -0.858149,-0.35998 -0.860439,-0.853568" fill="#FFFFFF" clip-rule="evenodd" fill-rule="evenodd"/>
    <path stroke="null" id="svg_24" d="m13.436346,59.577267c-0.456178,0 -0.811195,-0.348909 -0.816921,-0.801651c-0.005344,-0.469539 0.370287,-0.845551 0.834099,-0.833717c0.453887,0.011834 0.791726,0.366087 0.791726,0.829136c-0.000763,0.461904 -0.346619,0.806996 -0.808904,0.806232" fill="#FFFFFF" clip-rule="evenodd" fill-rule="evenodd"/>
    <path stroke="null" id="svg_25" d="m15.572937,17.319942c0.451597,0 0.806996,0.350436 0.812722,0.802796c0.005344,0.458468 -0.337075,0.808522 -0.797834,0.816921c-0.471829,0.00878 -0.83868,-0.354635 -0.834481,-0.824556c0.004581,-0.445489 0.364942,-0.795162 0.819593,-0.795162" fill="#FFFFFF" clip-rule="evenodd" fill-rule="evenodd"/>
    <path stroke="null" id="svg_26" d="m32.028164,29.220645c-0.418767,0.003054 -0.784473,-0.36456 -0.786763,-0.787527c-0.001909,-0.435946 0.340129,-0.774166 0.784473,-0.776838c0.437473,-0.001527 0.784473,0.342038 0.786,0.775693c0.000763,0.419913 -0.36456,0.787527 -0.783709,0.788672" fill="#FFFFFF" clip-rule="evenodd" fill-rule="evenodd"/>
    <path stroke="null" id="svg_27" d="m12.18577,61.694008c-0.007635,0.405406 -0.32715,0.720341 -0.730648,0.719577c-0.40846,0 -0.712706,-0.311499 -0.71347,-0.729121c-0.000763,-0.420676 0.3031,-0.71805 0.725303,-0.712706c0.421058,0.004963 0.72683,0.312262 0.718814,0.72225" fill="#FFFFFF" clip-rule="evenodd" fill-rule="evenodd"/>
    <path stroke="null" id="svg_28" d="m30.947844,25.938074c-0.008017,0.40617 -0.302719,0.696291 -0.700109,0.688275c-0.393573,-0.008017 -0.68293,-0.314934 -0.675296,-0.716523c0.007253,-0.387846 0.326005,-0.705453 0.704308,-0.699727c0.376013,0.005344 0.677968,0.33364 0.671097,0.727976" fill="#FFFFFF" clip-rule="evenodd" fill-rule="evenodd"/>
    <path stroke="null" id="svg_29" d="m6.737214,4.6069c0.010307,0.356926 -0.240114,0.622616 -0.598566,0.638267c-0.381357,0.015651 -0.661171,-0.246603 -0.661553,-0.620325c-0.001145,-0.347382 0.264927,-0.637504 0.600475,-0.654682c0.350054,-0.017942 0.650101,0.270653 0.659644,0.63674" fill="#FFFFFF" clip-rule="evenodd" fill-rule="evenodd"/>
    <path stroke="null" id="svg_30" d="m10.521008,65.31289c-0.36227,0.006871 -0.639031,-0.272943 -0.635977,-0.641321c0.003054,-0.357307 0.255001,-0.619562 0.603147,-0.630632c0.358071,-0.009543 0.660026,0.268362 0.67186,0.620325c0.01107,0.34471 -0.282868,0.645902 -0.639031,0.651628" fill="#FFFFFF" clip-rule="evenodd" fill-rule="evenodd"/>
    <path stroke="null" id="svg_31" d="m29.209024,24.185894c-0.00878,0.345092 -0.296229,0.615744 -0.639794,0.603147c-0.350436,-0.012597 -0.608873,-0.297374 -0.589023,-0.649337c0.017942,-0.336312 0.279433,-0.582151 0.613836,-0.579861c0.353108,0.004963 0.624524,0.28096 0.614981,0.626051" fill="#FFFFFF" clip-rule="evenodd" fill-rule="evenodd"/>
    <path stroke="null" id="svg_32" d="m18.088595,18.682749c0.3512,-0.003054 0.624524,0.267599 0.622616,0.615744c-0.00229,0.346237 -0.279433,0.610782 -0.633686,0.603529c-0.340129,-0.006108 -0.587878,-0.253093 -0.597039,-0.592458c-0.009162,-0.354635 0.251948,-0.624524 0.60811,-0.626815" fill="#FFFFFF" clip-rule="evenodd" fill-rule="evenodd"/>
    <path stroke="null" id="svg_33" d="m16.637607,27.645973c-0.742863,0.004581 -1.336849,-0.571845 -1.340666,-1.303256c-0.003436,-0.723777 0.596276,-1.322724 1.328069,-1.324251c0.741718,-0.000763 1.300965,0.572608 1.297148,1.331504c-0.003817,0.740573 -0.549322,1.29104 -1.284551,1.296003" fill="#FFFFFF" clip-rule="evenodd" fill-rule="evenodd"/>
    <path stroke="null" id="svg_34" d="m35.375631,57.743013c0.69591,-0.008017 1.252485,0.527181 1.264318,1.215456c0.011834,0.697055 -0.558102,1.288368 -1.246758,1.293712c-0.676059,0.005344 -1.222709,-0.553139 -1.22958,-1.253248c-0.005344,-0.712324 0.511148,-1.247522 1.21202,-1.25592" fill="#FFFFFF" clip-rule="evenodd" fill-rule="evenodd"/>
    <path stroke="null" id="svg_35" d="m12.769067,31.415642c-0.673769,-0.00229 -1.218892,-0.542832 -1.219655,-1.210875c-0.000763,-0.664989 0.553903,-1.205531 1.232634,-1.200186c0.687511,0.004199 1.213929,0.533289 1.209348,1.215074c-0.005726,0.685984 -0.52909,1.198278 -1.222327,1.195987" fill="#FFFFFF" clip-rule="evenodd" fill-rule="evenodd"/>
    <path stroke="null" id="svg_36" d="m20.45652,22.017618c0.660026,-0.000763 1.189879,0.532907 1.181099,1.187971c-0.009162,0.66537 -0.534816,1.177282 -1.201332,1.169266c-0.649719,-0.008017 -1.149797,-0.514584 -1.153614,-1.167739c-0.004199,-0.67186 0.505804,-1.187971 1.173846,-1.189498" fill="#FFFFFF" clip-rule="evenodd" fill-rule="evenodd"/>
    <path stroke="null" id="svg_37" d="m33.318059,55.681624c0,0.604674 -0.46992,1.07803 -1.076503,1.083374c-0.595131,0.006108 -1.085665,-0.477173 -1.092918,-1.072304c-0.006871,-0.623379 0.478319,-1.107806 1.103606,-1.100553c0.600475,0.008398 1.066578,0.483281 1.065814,1.089482" fill="#FFFFFF" clip-rule="evenodd" fill-rule="evenodd"/>
    <path stroke="null" id="svg_38" d="m10.208746,35.644925c-0.610782,0 -1.076503,-0.464576 -1.07803,-1.074594c-0.001527,-0.61918 0.458468,-1.083756 1.07154,-1.081847c0.63445,0.002672 1.073067,0.443199 1.072304,1.075358c-0.000382,0.63445 -0.441672,1.08032 -1.065814,1.081084" fill="#FFFFFF" clip-rule="evenodd" fill-rule="evenodd"/>
    <path stroke="null" id="svg_39" d="m25.061434,20.423478c-0.003054,0.604674 -0.483663,1.071922 -1.088337,1.057798c-0.589404,-0.014124 -1.03642,-0.478319 -1.030694,-1.070013c0.006108,-0.609637 0.436327,-1.039856 1.044819,-1.045582c0.627578,-0.006108 1.077267,0.437473 1.074213,1.057798" fill="#FFFFFF" clip-rule="evenodd" fill-rule="evenodd"/>
    <path stroke="null" id="svg_40" d="m27.143055,18.777421c-0.524127,-0.003817 -0.940986,-0.418386 -0.94633,-0.94404c-0.00649,-0.539778 0.433273,-0.985649 0.965035,-0.979541c0.517638,0.006108 0.94404,0.435182 0.948239,0.954347c0.003817,0.544741 -0.423348,0.973052 -0.966944,0.969234" fill="#FFFFFF" clip-rule="evenodd" fill-rule="evenodd"/>
    <path stroke="null" id="svg_41" d="m10.83327,39.047744c0.009925,0.550849 -0.39739,0.972288 -0.945567,0.977251c-0.550849,0.004963 -0.975342,-0.406552 -0.979541,-0.950148c-0.003054,-0.524891 0.405788,-0.945185 0.930679,-0.957782c0.555048,-0.014124 0.985649,0.38861 0.994429,0.930679" fill="#FFFFFF" clip-rule="evenodd" fill-rule="evenodd"/>
    <path stroke="null" id="svg_42" d="m38.94565,63.462603c-0.008017,0.469539 -0.395863,0.841734 -0.877617,0.83868c-0.483663,-0.003054 -0.858912,-0.374867 -0.861584,-0.855858c-0.002672,-0.496642 0.394718,-0.877617 0.90014,-0.861966c0.488625,0.014124 0.846315,0.388992 0.839062,0.879144" fill="#FFFFFF" clip-rule="evenodd" fill-rule="evenodd"/>
    <path stroke="null" id="svg_43" d="m29.84042,16.138843c-0.471829,-0.003054 -0.854331,-0.391664 -0.852041,-0.867692c0.001527,-0.488244 0.373722,-0.852041 0.866547,-0.850132c0.496642,0.00229 0.855095,0.366851 0.851277,0.863875c-0.003817,0.484808 -0.380593,0.857003 -0.865783,0.853949" fill="#FFFFFF" clip-rule="evenodd" fill-rule="evenodd"/>
    <path stroke="null" id="svg_44" d="m11.870454,43.017062c-0.010307,0.492825 -0.385556,0.844788 -0.881053,0.826082c-0.475265,-0.018705 -0.82112,-0.374867 -0.820356,-0.847078c0.001527,-0.479464 0.382502,-0.854331 0.865783,-0.852804s0.846696,0.380975 0.835626,0.8738" fill="#FFFFFF" clip-rule="evenodd" fill-rule="evenodd"/>
    <path stroke="null" id="svg_45" d="m30.313394,53.440436c-0.008398,0.451215 -0.400444,0.810431 -0.868074,0.796307c-0.455796,-0.013361 -0.796307,-0.363797 -0.79478,-0.818066c0.001145,-0.468393 0.365324,-0.821502 0.839062,-0.815012c0.469157,0.007635 0.833336,0.376776 0.823792,0.836771" fill="#FFFFFF" clip-rule="evenodd" fill-rule="evenodd"/>
    <path stroke="null" id="svg_46" d="m32.013276,13.469726c-0.428693,0.005726 -0.784473,-0.348146 -0.786382,-0.781419c-0.000763,-0.442817 0.338984,-0.779129 0.783328,-0.775311c0.409606,0.003817 0.761187,0.344328 0.775311,0.752025c0.014506,0.401971 -0.367233,0.799742 -0.772257,0.804705" fill="#FFFFFF" clip-rule="evenodd" fill-rule="evenodd"/>
    <path stroke="null" id="svg_47" d="m13.043155,45.314365c0.422966,0.001527 0.75966,0.327914 0.767295,0.743245c0.007253,0.433273 -0.34471,0.775311 -0.786763,0.763477c-0.427166,-0.010307 -0.747826,-0.340129 -0.741718,-0.761187c0.005344,-0.416859 0.343183,-0.746299 0.761187,-0.745536" fill="#FFFFFF" clip-rule="evenodd" fill-rule="evenodd"/>
    <path stroke="null" id="svg_48" d="m34.140324,9.961548c0.012597,0.372577 -0.3073,0.705453 -0.692856,0.71805c-0.395863,0.014124 -0.702781,-0.28096 -0.708507,-0.681404c-0.005726,-0.384029 0.268362,-0.674914 0.652391,-0.691329c0.390137,-0.016415 0.73561,0.286304 0.748971,0.654682" fill="#FFFFFF" clip-rule="evenodd" fill-rule="evenodd"/>
    <path stroke="null" id="svg_49" d="m15.575228,47.524251c0.355399,0.008017 0.670333,0.335548 0.664989,0.691329c-0.004581,0.365324 -0.313789,0.668806 -0.682167,0.668806c-0.393573,0 -0.696291,-0.313789 -0.681404,-0.707743c0.014124,-0.361888 0.334021,-0.661553 0.698582,-0.652391" fill="#FFFFFF" clip-rule="evenodd" fill-rule="evenodd"/>
    <path stroke="null" id="svg_50" d="m27.953486,51.926843c0.009925,0.348909 -0.246603,0.628342 -0.591313,0.641321c-0.334021,0.012597 -0.625288,-0.258819 -0.640557,-0.597803c-0.014124,-0.339366 0.252329,-0.623379 0.597039,-0.633686c0.355399,-0.011452 0.625288,0.239732 0.634831,0.590168" fill="#FFFFFF" clip-rule="evenodd" fill-rule="evenodd"/>
    <path stroke="null" id="svg_51" d="m33.97465,6.669052c0.349673,0.005344 0.618798,0.284777 0.607728,0.629869c-0.012216,0.348146 -0.293175,0.602765 -0.646665,0.588259c-0.341274,-0.014124 -0.585969,-0.266835 -0.583297,-0.603147c0.001909,-0.350054 0.275615,-0.620325 0.622234,-0.614981" fill="#FFFFFF" clip-rule="evenodd" fill-rule="evenodd"/>
   </g>
   <text transform="matrix(0.38173866271972656,0,0,0.38173866271972656,314.9726420537336,110.67126049395301) " stroke="#ff0000" stroke-opacity="0" font-weight="normal" xml:space="preserve" text-anchor="start" font-family="null" font-size="40" id="svg_52" y="-129.5934" x="-700.583331" stroke-width="0" fill="#ffffff">G      R      O      U      P</text>
  </g>
 </g>
</svg>